<svg width="140" height="31" viewBox="0 0 140 31" fill="none" xmlns="http://www.w3.org/2000/svg">
<mask id="mask0" mask-type="alpha" maskUnits="userSpaceOnUse" x="0" y="0" width="26" height="31">
<path fill-rule="evenodd" clip-rule="evenodd" d="M0 0.173203H25.4197V30.9861H0V0.173203Z" fill="white"></path>
</mask>
<g mask="url(#mask0)">
<path fill-rule="evenodd" clip-rule="evenodd" d="M12.7099 0.173203C2.84258 0.173203 0 3.06365 0 13.0971C0 23.1305 2.84258 26.021 12.7099 26.021V30.9862C15.3492 30.3407 21.1552 27.6472 23.7595 22.0244C24.9568 20.0227 25.4197 17.1408 25.4197 13.0971C25.4197 3.06365 22.577 0.173203 12.7099 0.173203Z" fill="#c1c1c1"></path>
</g>
<path fill-rule="evenodd" clip-rule="evenodd" d="M12.7099 5.74655C14.1139 5.74655 15.2519 6.90394 15.2519 8.33133C15.2519 9.75889 14.1139 10.9163 12.7099 10.9163C11.306 10.9163 10.168 9.75889 10.168 8.33133C10.168 6.90394 11.306 5.74655 12.7099 5.74655Z" fill="#fff"></path>
<path fill-rule="evenodd" clip-rule="evenodd" d="M12.7097 20.0167C9.474 20.0167 7.20215 17.4193 7.20215 15.278C7.20215 13.1366 10.6039 12.6932 12.7097 12.6932C14.8155 12.6932 18.2172 13.1366 18.2172 15.278C18.2172 17.4193 15.9453 20.0167 12.7097 20.0167Z" fill="#fff"></path>
<path fill-rule="evenodd" clip-rule="evenodd" d="M44.6553 14.4291C44.6553 11.9576 43.0949 10.4318 41.1143 10.4318C39.1037 10.4318 37.5732 11.9879 37.5732 14.4291C37.5732 16.8703 39.1037 18.4265 41.1143 18.4265C43.0949 18.4265 44.6553 16.9006 44.6553 14.4291ZM32.9814 14.4291C32.9814 9.15028 36.7027 6.4344 40.1237 6.4344C42.2242 6.4344 43.7247 7.28889 44.4749 8.17369L44.8949 6.80069H49.1261V22.0577H45.1051L44.4749 20.5624C43.8447 21.3253 42.4943 22.4236 39.9135 22.4236C36.2226 22.4236 32.9814 19.3114 32.9814 14.4291Z" fill="#c1c1c1"></path>
<path fill-rule="evenodd" clip-rule="evenodd" d="M51.5273 18.3959L54.9483 16.8092C55.5185 18.1213 56.5387 18.8537 57.7091 18.8537C58.8494 18.8537 59.3897 18.2739 59.3897 17.6331C59.3897 16.9925 58.8794 16.4734 57.5891 15.9854L55.7285 15.2835C53.688 14.5208 52.4576 13.0866 52.4576 10.7675C52.4576 8.23487 54.6782 6.43445 57.6192 6.43445C60.1699 6.43445 61.7603 7.44152 62.6306 9.27225L59.3597 11.042C58.9996 10.2182 58.4894 9.76063 57.7691 9.76063C57.1089 9.76063 56.6588 10.1266 56.6588 10.6759C56.6588 11.1948 56.9589 11.4999 57.6492 11.7746L59.6898 12.5373C62.0304 13.4221 63.5609 14.8564 63.5609 17.5721C63.5609 20.3793 61.2502 22.4237 57.5891 22.4237C54.3181 22.4237 52.3076 20.8065 51.5273 18.3959Z" fill="#c1c1c1"></path>
<path fill-rule="evenodd" clip-rule="evenodd" d="M65.6309 0.240173H70.1923V11.8354L74.4234 6.80057H79.9449L73.6132 13.7882L80.3351 22.0578H74.5735L70.1923 16.3513V22.0578H65.6309V0.240173Z" fill="#c1c1c1"></path>
<path fill-rule="evenodd" clip-rule="evenodd" d="M91.4688 14.4291C91.4688 11.9576 89.9084 10.4318 87.9278 10.4318C85.9172 10.4318 84.3867 11.9879 84.3867 14.4291C84.3867 16.8703 85.9172 18.4265 87.9278 18.4265C89.9084 18.4265 91.4688 16.9006 91.4688 14.4291ZM79.7949 14.4291C79.7949 9.15028 83.5162 6.4344 86.9371 6.4344C89.0376 6.4344 90.5381 7.28889 91.2884 8.17369L91.7084 6.80069H95.9395V22.0577H91.9185L91.2884 20.5624C90.6582 21.3253 89.3078 22.4236 86.727 22.4236C83.036 22.4236 79.7949 19.3114 79.7949 14.4291Z" fill="#c1c1c1"></path>
<path fill-rule="evenodd" clip-rule="evenodd" d="M110.704 14.4291C110.704 12.0184 109.173 10.4623 107.133 10.4623C105.152 10.4623 103.562 11.9879 103.562 14.4291C103.562 16.8703 105.122 18.3959 107.103 18.3959C109.113 18.3959 110.704 16.8399 110.704 14.4291ZM103.411 20.3489L102.901 22.0577H99.0898V0.240128H103.651V8.41789C104.521 7.411 106.082 6.43441 108.273 6.43441C111.754 6.43441 115.295 8.93658 115.295 14.4291C115.295 19.5556 111.724 22.4237 108.032 22.4237C105.752 22.4237 104.161 21.4472 103.411 20.3489Z" fill="#c1c1c1"></path>
<mask id="mask1" mask-type="alpha" maskUnits="userSpaceOnUse" x="0" y="0" width="140" height="31">
<path fill-rule="evenodd" clip-rule="evenodd" d="M0 30.9861H139.991V0.173187H0V30.9861Z" fill="white"></path>
</mask>
<g mask="url(#mask1)">
<path fill-rule="evenodd" clip-rule="evenodd" d="M117.096 22.0578H121.657V0.240204H117.096V22.0578Z" fill="#c1c1c1"></path>
<path fill-rule="evenodd" clip-rule="evenodd" d="M129.278 12.5068H135.31C135.01 10.8588 133.81 10.0047 132.309 10.0047C130.989 10.0047 129.758 10.615 129.278 12.5068ZM132.339 22.4237C127.778 22.4237 124.627 19.2198 124.627 14.4292C124.627 9.60808 127.748 6.43448 132.309 6.43448C137.591 6.43448 139.991 10.1572 139.991 13.9103C139.991 14.4595 139.931 15.07 139.811 15.5887H129.188C129.578 17.6026 130.839 18.4569 132.549 18.4569C134.2 18.4569 135.16 17.6331 135.67 16.6872L139.421 18.5792C138.131 21.0201 135.76 22.4237 132.339 22.4237Z" fill="#c1c1c1"></path>
</g>
</svg>