<svg xmlns="http://www.w3.org/2000/svg" xmlns:xlink="http://www.w3.org/1999/xlink" viewBox="0 0 111 23" fill="#fff" fill-rule="evenodd" stroke="#000" stroke-linecap="round" stroke-linejoin="round">
	<use xlink:href="#A" x=".5" y=".5" />
	<symbol id="A" overflow="visible">
		<g stroke="none">
			<path d="M29.304 17.415c-.939 0-1.842-.126-2.71-.378s-1.59-.601-2.165-1.047l.88-1.954a6.89 6.89 0 0 0 4.03 1.25c.775 0 1.37-.126 1.787-.378s.625-.601.625-1.047c0-.399-.191-.71-.572-.933s-1.059-.44-2.033-.651c-1.091-.223-1.962-.493-2.614-.81s-1.127-.707-1.425-1.17-.449-1.035-.449-1.716c0-.751.209-1.42.625-2.007s1-1.047 1.751-1.381 1.619-.502 2.605-.502c.88 0 1.728.129 2.543.387s1.464.604 1.945 1.039l-.88 1.954c-1.138-.833-2.335-1.25-3.591-1.25-.716 0-1.279.138-1.689.414s-.616.654-.616 1.135c0 .281.079.513.238.695s.422.343.792.484.894.288 1.575.44c1.596.352 2.743.804 3.441 1.355s1.047 1.314 1.047 2.288c0 1.173-.452 2.097-1.355 2.772s-2.165 1.012-3.784 1.012zm11.51-1.971c.27 0 .552-.018.845-.053l-.14 1.936a7.46 7.46 0 0 1-1.021.07c-1.314 0-2.273-.287-2.878-.862s-.906-1.449-.906-2.622v-3.309h-1.637V8.615h1.637V6.08h2.658v2.534h2.165v1.989h-2.165v3.291c0 1.032.481 1.549 1.443 1.549zm6.177 1.954c-.915 0-1.719-.185-2.411-.554s-1.226-.892-1.601-1.566-.563-1.469-.563-2.385.187-1.71.563-2.385a3.83 3.83 0 0 1 1.601-1.558c.692-.364 1.496-.546 2.411-.546s1.719.182 2.412.546a3.83 3.83 0 0 1 1.601 1.558c.376.675.563 1.47.563 2.385s-.187 1.71-.563 2.385-.909 1.197-1.601 1.566-1.496.554-2.412.554zm0-2.024c1.291 0 1.936-.827 1.936-2.482 0-.833-.167-1.455-.501-1.866s-.812-.616-1.435-.616c-1.29 0-1.936.827-1.936 2.482s.645 2.482 1.936 2.482zm11.933-4.787l-1.496.158c-.739.071-1.262.279-1.566.625s-.458.807-.458 1.382v4.506h-2.657V8.615h2.552v1.461c.434-.997 1.331-1.543 2.692-1.637l.775-.053.158 2.2zm7.722-1.954h2.605l-5.209 11.792h-2.693l1.654-3.643-3.555-8.149h2.763l2.183 5.491 2.252-5.491zm8.765-.229c.751 0 1.414.182 1.989.546s1.024.883 1.347 1.558.484 1.458.484 2.349-.162 1.681-.484 2.367-.775 1.22-1.355 1.602-1.241.572-1.98.572c-.598 0-1.138-.126-1.619-.378s-.851-.601-1.109-1.047v1.285h-2.622V4.848h2.657v4.928a2.63 2.63 0 0 1 1.1-1.012c.475-.24 1.006-.361 1.593-.361zm-.774 6.97c.622 0 1.102-.22 1.443-.66s.511-1.059.511-1.857c0-.786-.17-1.387-.511-1.804s-.821-.625-1.443-.625-1.103.214-1.444.642-.51 1.035-.51 1.822c0 .798.17 1.411.51 1.839s.821.642 1.444.642zm10.366 2.024c-.915 0-1.719-.185-2.411-.554s-1.227-.892-1.602-1.566-.563-1.469-.563-2.385.188-1.71.563-2.385a3.83 3.83 0 0 1 1.602-1.558c.692-.364 1.496-.546 2.411-.546s1.719.182 2.411.546a3.83 3.83 0 0 1 1.602 1.558c.375.675.563 1.47.563 2.385s-.188 1.71-.563 2.385-.91 1.197-1.602 1.566-1.496.554-2.411.554zm0-2.024c1.29 0 1.936-.827 1.936-2.482 0-.833-.167-1.455-.502-1.866s-.812-.616-1.434-.616c-1.29 0-1.936.827-1.936 2.482s.646 2.482 1.936 2.482zm9.909 2.024c-.915 0-1.72-.185-2.412-.554s-1.226-.892-1.601-1.566-.563-1.469-.563-2.385.188-1.71.563-2.385a3.83 3.83 0 0 1 1.601-1.558c.692-.364 1.497-.546 2.412-.546s1.719.182 2.411.546 1.226.883 1.602 1.558.563 1.47.563 2.385-.187 1.71-.563 2.385a3.89 3.89 0 0 1-1.602 1.566c-.692.37-1.496.554-2.411.554zm0-2.024c1.29 0 1.936-.827 1.936-2.482 0-.833-.167-1.455-.502-1.866s-.812-.616-1.434-.616c-1.291 0-1.936.827-1.936 2.482s.645 2.482 1.936 2.482zM110 17.257h-3.256l-3.309-3.854v3.854h-2.657V4.848h2.657v7.462l3.186-3.678h3.167l-3.625 4.118L110 17.257z" fill="#c1c1c1" />
			<path d="M.682 20.272L.001 2.113c-.022-.6.438-1.108 1.037-1.145L16.483.002c.61-.038 1.135.425 1.174 1.035l.002.069v19.788c0 .611-.495 1.106-1.106 1.106-.016 0-.033 0-.05-.001l-14.764-.663c-.575-.026-1.035-.488-1.056-1.063z" fill="#c1c1c1" />
			<path d="M13.039 2.704l.105-2.537L15.266 0l.091 2.617c.003.091-.069.167-.159.171-.039.001-.077-.011-.108-.035l-.818-.644-.969.735c-.072.055-.176.041-.231-.032-.024-.031-.035-.068-.034-.107zm-2.712 5.589c0 .43 2.898.224 3.288-.078 0-2.93-1.572-4.47-4.452-4.47S4.67 5.308 4.67 7.654c0 4.086 5.514 4.164 5.514 6.392 0 .626-.307.997-.98.997-.878 0-1.225-.448-1.185-1.973 0-.331-3.349-.434-3.451 0-.26 3.695 2.042 4.761 4.676 4.761 2.553 0 4.554-1.361 4.554-3.824 0-4.379-5.595-4.262-5.595-6.431 0-.88.654-.997 1.041-.997.409 0 1.144.072 1.083 1.714z" fill-rule="nonzero" />
		</g>
	</symbol>
</svg>