<svg xmlns="http://www.w3.org/2000/svg" xmlns:xlink="http://www.w3.org/1999/xlink" viewBox="0 0 110 34" fill="#fff" fill-rule="evenodd" stroke="#000" stroke-linecap="round" stroke-linejoin="round">
    <use xlink:href="#A" x=".5" y=".5" />
    <symbol id="A" overflow="visible">
        <g stroke="none">
            <path d="M4.346 23.259L0 18.399l13.303-4.842 2.07 5.7z" fill="#c1c1c1" />
            <path d="M4.314 23.169l-.204 6.52 13.303-4.842-2.07-5.7z" fill="#c1c1c1" />
            <path d="M41.283 9.824c1.898 5.5-4.218 12.726-13.732 16.2s-18.845 1.86-20.926-3.575z" fill="#c1c1c1" />
            <path d="M41.284 9.824c-2.068-5.447-11.408-7.058-20.932-3.592S4.708 16.937 6.625 22.429z" fill="#c1c1c1" />
            <path d="M41.283 9.824c1.183 3.68-5.457 9.4-14.942 12.862s-18.256 3.33-19.714-.248z" fill="#c1c1c1" />
            <path d="M41.283 9.824c-1.437-3.596-10.22-3.724-19.72-.266s-16.147 9.2-14.936 12.88z" fill="#c1c1c1" />
            <g fill="#c1c1c1" fill-rule="nonzero">
                <path d="M25.295 4.834C24.39 1.704 23.36-.032 22.189.001c-2.264.064-3.025 7.243-2.292 16.442.74 9.297 2.66 16.28 5.056 16.217 1.428-.037 2.232-2.322 2.515-6.3.006-.08-.085-.025-.08-.108 0 0-.012-.145-.065-.148l-.304-.02c-.25 3.85-1.002 6.07-2.08 6.1-1.968.05-3.87-6.857-4.58-15.788-.7-8.785.054-15.9 1.842-15.94.846-.024 1.795 1.575 2.634 4.458l.46-.1z" />
                <path d="M14.075 2.599c-1.93 1.188 1.002 7.785 6.236 15.386 5.3 7.68 10.445 12.768 12.487 11.516 1.14-.7.82-2.824-.65-6.03-.033-.08-.106-.133-.2-.143s-.168.03-.216.1-.055.16-.016.237c1.366 2.98 1.66 4.93.828 5.44-1.68 1.03-6.778-4.004-11.86-11.384-4.998-7.258-7.898-13.786-6.375-14.725.8-.498 2.732.704 5.275 3.3a2.37 2.37 0 0 0 .227.208c.08.024.04-.143.102-.205a.23.23 0 0 0 .07-.164c0-.062-.023-.12-.067-.165-2.716-2.774-4.754-4.048-5.852-3.372z" />
            </g>
            <g fill="#c1c1c1">
                <path d="M62.25 19.086h5.1v2.543h-8.058v-10.6h8.058v2.544h-5.1v1.273h3.18v2.545h-3.18zm23.113 0h4.665v2.543h-7.633v-10.6h2.97zm7.634-8.058h2.97v10.6h-2.97zm6.36 0v10.6h2.757V15.69l3.817 5.938h2.757V11.027h-2.757v6.026l-3.817-6z" />
                <path d="M73.286 15.905h2.124c.703 0 1.273-.57 1.273-1.272s-.57-1.273-1.273-1.273h-2.125v2.545zm2.548-4.877c.956 0 1.872.38 2.548 1.056s1.055 1.593 1.055 2.55a3.61 3.61 0 0 1-1.055 2.55c-.675.677-1.592 1.056-2.548 1.056h-2.25v3.39H70.53V11.027h5.303z" fill-rule="nonzero" />
                <path d="M55.9 13.572v-2.543h-8.694v2.544h4.877l-4.877 5.514v2.545H55.9v-2.545h-4.665z" />
            </g>
        </g>
    </symbol>
</svg>